<?xml version="1.0" encoding="utf-8"?>
<svg version="1.1" xmlns:xlink="http://www.w3.org/1999/xlink" width="92px" height="26px" xmlns="http://www.w3.org/2000/svg">
  <defs>
    <mask fill="white" id="clip2">
      <path d="M 0 21  L 0 5  C 0 2.19999999999999  2.19999999999999 0  5 0  L 44 0  L 87 0  C 89.8 0  92 2.19999999999999  92 5  L 92 21  C 92 23.8  89.8 26  87 26  L 5 26  C 2.19999999999999 26  0 23.8  0 21  Z " fill-rule="evenodd" />
    </mask>
  </defs>
  <g transform="matrix(1 0 0 1 -175 -258 )">
    <path d="M 0 21  L 0 5  C 0 2.19999999999999  2.19999999999999 0  5 0  L 44 0  L 87 0  C 89.8 0  92 2.19999999999999  92 5  L 92 21  C 92 23.8  89.8 26  87 26  L 5 26  C 2.19999999999999 26  0 23.8  0 21  Z " fill-rule="nonzero" fill="#ffffff" stroke="none" transform="matrix(1 0 0 1 175 258 )" />
    <path d="M 0 21  L 0 5  C 0 2.19999999999999  2.19999999999999 0  5 0  L 44 0  L 87 0  C 89.8 0  92 2.19999999999999  92 5  L 92 21  C 92 23.8  89.8 26  87 26  L 5 26  C 2.19999999999999 26  0 23.8  0 21  Z " stroke-width="2" stroke="#797979" fill="none" transform="matrix(1 0 0 1 175 258 )" mask="url(#clip2)" />
  </g>
</svg>