<?xml version="1.0" encoding="utf-8"?>
<svg version="1.1" xmlns:xlink="http://www.w3.org/1999/xlink" width="12px" height="12px" viewBox="362 389.5  12 12" xmlns="http://www.w3.org/2000/svg">
  <path d="M 368 389.5  C 371.36 389.5  374 392.14  374 395.5  C 374 398.86  371.36 401.5  368 401.5  C 364.64 401.5  362 398.86  362 395.5  C 362 392.14  364.64 389.5  368 389.5  Z " fill-rule="nonzero" fill="#f0f0f0" stroke="none" />
  <path d="M 368 390  C 371.08 390  373.5 392.42  373.5 395.5  C 373.5 398.58  371.08 401  368 401  C 364.92 401  362.5 398.58  362.5 395.5  C 362.5 392.42  364.92 390  368 390  Z " stroke-width="1" stroke="#797979" fill="none" />
  <path d="M 368 398.5  C 366.32 398.5  365 397.18  365 395.5  C 365 393.82  366.32 392.5  368 392.5  C 369.68 392.5  371 393.82  371 395.5  C 371 397.18  369.68 398.5  368 398.5  " fill-rule="nonzero" fill="#797979" stroke="none" />
</svg>