<?xml version="1.0" encoding="utf-8"?>
<svg version="1.1" xmlns:xlink="http://www.w3.org/1999/xlink" width="170px" height="170px" xmlns="http://www.w3.org/2000/svg">
  <g transform="matrix(1 0 0 1 -146 -43 )">
    <path d="M 231 43  C 278.6 43  316 80.4  316 128  C 316 175.6  278.6 213  231 213  C 183.4 213  146 175.6  146 128  C 146 80.4  183.4 43  231 43  Z " fill-rule="nonzero" fill="#ffffff" stroke="none" />
    <path d="M 231 43.5  C 278.32 43.5  315.5 80.68  315.5 128  C 315.5 175.32  278.32 212.5  231 212.5  C 183.68 212.5  146.5 175.32  146.5 128  C 146.5 80.68  183.68 43.5  231 43.5  Z " stroke-width="1" stroke="#797979" fill="none" />
  </g>
</svg>