<?xml version="1.0" encoding="utf-8"?>
<svg version="1.1" xmlns:xlink="http://www.w3.org/1999/xlink" width="20px" height="20px" xmlns="http://www.w3.org/2000/svg">
  <g transform="matrix(1 0 0 1 -651 -413 )">
    <path d="M 14.2857142857143 4.28571428571429  L 18.9285714285714 4.28571428571429  C 19.2261904761905 4.28571428571429  19.4791666666667 4.38988095238095  19.6875 4.59821428571429  C 19.8958333333333 4.80654761904762  20 5.05952380952381  20 5.35714285714286  L 20 18.9285714285714  C 20 19.2261904761905  19.8958333333333 19.4791666666667  19.6875 19.6875  C 19.4791666666667 19.8958333333333  19.2261904761905 20  18.9285714285714 20  L 8.21428571428571 20  C 7.91666666666667 20  7.66369047619048 19.8958333333333  7.45535714285714 19.6875  C 7.24702380952381 19.4791666666667  7.14285714285714 19.2261904761905  7.14285714285714 18.9285714285714  L 7.14285714285714 15.7142857142857  L 1.07142857142857 15.7142857142857  C 0.773809523809524 15.7142857142857  0.520833333333333 15.610119047619  0.3125 15.4017857142857  C 0.104166666666667 15.1934523809524  0 14.9404761904762  0 14.6428571428571  L 0 7.14285714285714  C 0 6.84523809523809  0.0744047619047619 6.51785714285714  0.223214285714286 6.16071428571429  C 0.37202380952381 5.80357142857143  0.550595238095238 5.52083333333333  0.758928571428571 5.3125  L 5.3125 0.758928571428572  C 5.52083333333333 0.550595238095237  5.80357142857143 0.372023809523809  6.16071428571429 0.223214285714286  C 6.51785714285714 0.0744047619047628  6.84523809523809 0  7.14285714285714 0  L 11.7857142857143 0  C 12.0833333333333 0  12.3363095238095 0.104166666666667  12.5446428571429 0.3125  C 12.7529761904762 0.520833333333333  12.8571428571429 0.773809523809523  12.8571428571429 1.07142857142857  L 12.8571428571429 4.73214285714286  C 13.3630952380952 4.43452380952381  13.8392857142857 4.28571428571429  14.2857142857143 4.28571428571429  Z M 12.8571428571429 10  L 12.8571428571429 6.66294642857143  L 9.52008928571429 10  L 12.8571428571429 10  Z M 5.71428571428571 5.71428571428571  L 5.71428571428571 2.37723214285714  L 2.37723214285714 5.71428571428571  L 5.71428571428571 5.71428571428571  Z M 7.36607142857143 10.4464285714286  C 7.51488095238095 10.0892857142857  7.69345238095238 9.80654761904762  7.90178571428571 9.59821428571429  L 11.4285714285714 6.07142857142857  L 11.4285714285714 1.42857142857143  L 7.14285714285714 1.42857142857143  L 7.14285714285714 6.07142857142857  C 7.14285714285714 6.36904761904762  7.03869047619048 6.62202380952381  6.83035714285714 6.83035714285714  C 6.62202380952381 7.03869047619047  6.36904761904762 7.14285714285714  6.07142857142857 7.14285714285714  L 1.42857142857143 7.14285714285714  L 1.42857142857143 14.2857142857143  L 7.14285714285714 14.2857142857143  L 7.14285714285714 11.4285714285714  C 7.14285714285714 11.1309523809524  7.21726190476191 10.8035714285714  7.36607142857143 10.4464285714286  Z M 8.57142857142857 18.5714285714286  L 18.5714285714286 18.5714285714286  L 18.5714285714286 5.71428571428571  L 14.2857142857143 5.71428571428571  L 14.2857142857143 10.3571428571429  C 14.2857142857143 10.6547619047619  14.1815476190476 10.9077380952381  13.9732142857143 11.1160714285714  C 13.764880952381 11.3244047619048  13.5119047619048 11.4285714285714  13.2142857142857 11.4285714285714  L 8.57142857142857 11.4285714285714  L 8.57142857142857 18.5714285714286  Z " fill-rule="nonzero" fill="#000000" stroke="none" transform="matrix(1 0 0 1 651 413 )" />
  </g>
</svg>