<?xml version="1.0" encoding="utf-8"?>
<svg version="1.1" xmlns:xlink="http://www.w3.org/1999/xlink" width="80px" height="80px" xmlns="http://www.w3.org/2000/svg">
  <g transform="matrix(1 0 0 1 -260 -305 )">
    <path d="M 300 305  C 322.4 305  340 322.6  340 345  C 340 367.4  322.4 385  300 385  C 277.6 385  260 367.4  260 345  C 260 322.6  277.6 305  300 305  Z " fill-rule="nonzero" fill="#ffffff" stroke="none" />
    <path d="M 300 305.5  C 322.12 305.5  339.5 322.88  339.5 345  C 339.5 367.12  322.12 384.5  300 384.5  C 277.88 384.5  260.5 367.12  260.5 345  C 260.5 322.88  277.88 305.5  300 305.5  Z " stroke-width="1" stroke="#797979" fill="none" />
  </g>
</svg>